# xmcd CD database file
#
# Track frame offsets:
#	182
#	21350
#	40565
#	46927
#
# Disc length: 911 seconds
#
# Revision: 0
# Processed by: cddbd v1.5.1PL2 Copyright (c) Steve Scherf et al.
# Submitted via: CDex 1.51
#
DISCID=26038d04
DTITLE=Bon Jovi - Living In Sin
DYEAR=1900
DGENRE=Hard Rock
TTITLE0=Living In Sin
TTITLE1=Love Is War
TTITLE2=Ride Cowboy Ride
TTITLE3=Stick To Your Guns
EXTD=
EXTT0=
EXTT1=
EXTT2=
EXTT3=
PLAYORDER=
